<mxfile host="app.diagrams.net" modified="2021-05-29T16:16:09.596Z" agent="5.0 (X11)" etag="EGu6zBlxotO6Kv8xmpWw" version="14.7.3" type="github">
  <diagram id="iH3Hz4BsVpQQMrgSy0bL" name="Page-1">
    <mxGraphModel dx="2576" dy="800" grid="1" gridSize="10" guides="1" tooltips="1" connect="1" arrows="1" fold="1" page="1" pageScale="1" pageWidth="1200" pageHeight="1600" math="0" shadow="0">
      <root>
        <mxCell id="0" />
        <mxCell id="1" parent="0" />
        <mxCell id="rYzeqXxMH45nVFzDTZcA-62" style="edgeStyle=orthogonalEdgeStyle;rounded=0;orthogonalLoop=1;jettySize=auto;html=1;fontColor=none;endArrow=none;endFill=0;" parent="1" source="rYzeqXxMH45nVFzDTZcA-1" target="rYzeqXxMH45nVFzDTZcA-22" edge="1">
          <mxGeometry relative="1" as="geometry" />
        </mxCell>
        <mxCell id="rYzeqXxMH45nVFzDTZcA-63" value="&lt;div&gt;&lt;font color=&quot;#E6D0DE&quot;&gt;payedFrom&lt;/font&gt;&lt;/div&gt;&lt;div&gt;&lt;font color=&quot;#E6D0DE&quot;&gt;1..1&lt;br&gt;&lt;/font&gt;&lt;/div&gt;" style="edgeLabel;html=1;align=center;verticalAlign=middle;resizable=0;points=[];fontColor=none;" parent="rYzeqXxMH45nVFzDTZcA-62" vertex="1" connectable="0">
          <mxGeometry x="0.2333" relative="1" as="geometry">
            <mxPoint x="-7" y="-16" as="offset" />
          </mxGeometry>
        </mxCell>
        <mxCell id="rYzeqXxMH45nVFzDTZcA-1" value="Order   (pay:Order)" style="swimlane;fontStyle=0;childLayout=stackLayout;horizontal=1;startSize=26;fillColor=none;horizontalStack=0;resizeParent=1;resizeParentMax=0;resizeLast=0;collapsible=1;marginBottom=0;" parent="1" vertex="1">
          <mxGeometry x="330" y="240" width="180" height="52" as="geometry" />
        </mxCell>
        <mxCell id="rYzeqXxMH45nVFzDTZcA-3" value="+ amount: schema:amount" style="text;strokeColor=none;fillColor=none;align=left;verticalAlign=top;spacingLeft=4;spacingRight=4;overflow=hidden;rotatable=0;points=[[0,0.5],[1,0.5]];portConstraint=eastwest;" parent="rYzeqXxMH45nVFzDTZcA-1" vertex="1">
          <mxGeometry y="26" width="180" height="26" as="geometry" />
        </mxCell>
        <mxCell id="rYzeqXxMH45nVFzDTZcA-44" style="edgeStyle=orthogonalEdgeStyle;rounded=0;orthogonalLoop=1;jettySize=auto;html=1;endArrow=none;endFill=0;" parent="1" source="rYzeqXxMH45nVFzDTZcA-5" target="rYzeqXxMH45nVFzDTZcA-14" edge="1">
          <mxGeometry relative="1" as="geometry">
            <Array as="points">
              <mxPoint x="750" y="260" />
              <mxPoint x="750" y="260" />
            </Array>
          </mxGeometry>
        </mxCell>
        <mxCell id="rYzeqXxMH45nVFzDTZcA-45" value="&lt;div&gt;pext:hasAddress&lt;/div&gt;&lt;div&gt;1..1&lt;br&gt;&lt;/div&gt;" style="edgeLabel;html=1;align=center;verticalAlign=middle;resizable=0;points=[];" parent="rYzeqXxMH45nVFzDTZcA-44" vertex="1" connectable="0">
          <mxGeometry x="0.2472" y="-2" relative="1" as="geometry">
            <mxPoint x="48" y="-69" as="offset" />
          </mxGeometry>
        </mxCell>
        <mxCell id="rYzeqXxMH45nVFzDTZcA-53" style="edgeStyle=orthogonalEdgeStyle;rounded=0;orthogonalLoop=1;jettySize=auto;html=1;fontColor=#E6D0DE;endArrow=none;endFill=0;" parent="1" source="rYzeqXxMH45nVFzDTZcA-5" edge="1">
          <mxGeometry relative="1" as="geometry">
            <Array as="points">
              <mxPoint x="600" y="422" />
              <mxPoint x="600" y="290" />
            </Array>
            <mxPoint x="510" y="290.0000000000001" as="targetPoint" />
          </mxGeometry>
        </mxCell>
        <mxCell id="aIXJ-rFbpL7HegaQb5e9-1" value="&lt;div&gt;customer&lt;/div&gt;&lt;div&gt;1..1&lt;/div&gt;" style="edgeLabel;html=1;align=center;verticalAlign=middle;resizable=0;points=[];fontColor=#E6D0DE;" parent="rYzeqXxMH45nVFzDTZcA-53" vertex="1" connectable="0">
          <mxGeometry x="-0.7454" y="2" relative="1" as="geometry">
            <mxPoint as="offset" />
          </mxGeometry>
        </mxCell>
        <mxCell id="rYzeqXxMH45nVFzDTZcA-5" value="Person (foaf:Person)" style="swimlane;fontStyle=0;childLayout=stackLayout;horizontal=1;startSize=26;fillColor=none;horizontalStack=0;resizeParent=1;resizeParentMax=0;resizeLast=0;collapsible=1;marginBottom=0;" parent="1" vertex="1">
          <mxGeometry x="660" y="370" width="140" height="52" as="geometry" />
        </mxCell>
        <mxCell id="rYzeqXxMH45nVFzDTZcA-6" value="+ name: foaf:name" style="text;strokeColor=none;fillColor=none;align=left;verticalAlign=top;spacingLeft=4;spacingRight=4;overflow=hidden;rotatable=0;points=[[0,0.5],[1,0.5]];portConstraint=eastwest;" parent="rYzeqXxMH45nVFzDTZcA-5" vertex="1">
          <mxGeometry y="26" width="140" height="26" as="geometry" />
        </mxCell>
        <mxCell id="rYzeqXxMH45nVFzDTZcA-51" style="edgeStyle=orthogonalEdgeStyle;rounded=0;orthogonalLoop=1;jettySize=auto;html=1;fontColor=#080707;endArrow=none;endFill=0;" parent="1" source="rYzeqXxMH45nVFzDTZcA-10" target="rYzeqXxMH45nVFzDTZcA-1" edge="1">
          <mxGeometry relative="1" as="geometry" />
        </mxCell>
        <mxCell id="rYzeqXxMH45nVFzDTZcA-10" value="Yoghurt" style="swimlane;fontStyle=0;childLayout=stackLayout;horizontal=1;startSize=26;fillColor=none;horizontalStack=0;resizeParent=1;resizeParentMax=0;resizeLast=0;collapsible=1;marginBottom=0;fontColor=#E6D0DE;" parent="1" vertex="1">
          <mxGeometry x="350" y="370" width="140" height="78" as="geometry" />
        </mxCell>
        <mxCell id="rYzeqXxMH45nVFzDTZcA-12" value="+ flavor" style="text;strokeColor=none;fillColor=none;align=left;verticalAlign=top;spacingLeft=4;spacingRight=4;overflow=hidden;rotatable=0;points=[[0,0.5],[1,0.5]];portConstraint=eastwest;fontColor=#E6D0DE;" parent="rYzeqXxMH45nVFzDTZcA-10" vertex="1">
          <mxGeometry y="26" width="140" height="26" as="geometry" />
        </mxCell>
        <mxCell id="rYzeqXxMH45nVFzDTZcA-13" value="+ price: schema:price" style="text;strokeColor=none;fillColor=none;align=left;verticalAlign=top;spacingLeft=4;spacingRight=4;overflow=hidden;rotatable=0;points=[[0,0.5],[1,0.5]];portConstraint=eastwest;" parent="rYzeqXxMH45nVFzDTZcA-10" vertex="1">
          <mxGeometry y="52" width="140" height="26" as="geometry" />
        </mxCell>
        <mxCell id="rYzeqXxMH45nVFzDTZcA-14" value="Address(pext:Address)" style="swimlane;fontStyle=0;childLayout=stackLayout;horizontal=1;startSize=26;fillColor=none;horizontalStack=0;resizeParent=1;resizeParentMax=0;resizeLast=0;collapsible=1;marginBottom=0;" parent="1" vertex="1">
          <mxGeometry x="660" y="40" width="140" height="104" as="geometry" />
        </mxCell>
        <mxCell id="rYzeqXxMH45nVFzDTZcA-15" value="+ street: pext:Street" style="text;strokeColor=none;fillColor=none;align=left;verticalAlign=top;spacingLeft=4;spacingRight=4;overflow=hidden;rotatable=0;points=[[0,0.5],[1,0.5]];portConstraint=eastwest;" parent="rYzeqXxMH45nVFzDTZcA-14" vertex="1">
          <mxGeometry y="26" width="140" height="26" as="geometry" />
        </mxCell>
        <mxCell id="olLpTlCN6azwz4S4PQLR-1" value="+ city: pext:City" style="text;strokeColor=none;fillColor=none;align=left;verticalAlign=top;spacingLeft=4;spacingRight=4;overflow=hidden;rotatable=0;points=[[0,0.5],[1,0.5]];portConstraint=eastwest;" parent="rYzeqXxMH45nVFzDTZcA-14" vertex="1">
          <mxGeometry y="52" width="140" height="26" as="geometry" />
        </mxCell>
        <mxCell id="rYzeqXxMH45nVFzDTZcA-16" value="+ zip: pext:ZIPCode" style="text;strokeColor=none;fillColor=none;align=left;verticalAlign=top;spacingLeft=4;spacingRight=4;overflow=hidden;rotatable=0;points=[[0,0.5],[1,0.5]];portConstraint=eastwest;" parent="rYzeqXxMH45nVFzDTZcA-14" vertex="1">
          <mxGeometry y="78" width="140" height="26" as="geometry" />
        </mxCell>
        <mxCell id="rYzeqXxMH45nVFzDTZcA-47" style="edgeStyle=orthogonalEdgeStyle;rounded=0;orthogonalLoop=1;jettySize=auto;html=1;endArrow=none;endFill=0;" parent="1" source="rYzeqXxMH45nVFzDTZcA-18" target="rYzeqXxMH45nVFzDTZcA-14" edge="1">
          <mxGeometry relative="1" as="geometry" />
        </mxCell>
        <mxCell id="rYzeqXxMH45nVFzDTZcA-48" value="&lt;div&gt;pext:hasAddress&lt;/div&gt;&lt;div&gt;1..1&lt;/div&gt;" style="edgeLabel;html=1;align=center;verticalAlign=middle;resizable=0;points=[];" parent="rYzeqXxMH45nVFzDTZcA-47" vertex="1" connectable="0">
          <mxGeometry x="0.1414" relative="1" as="geometry">
            <mxPoint x="29" y="18" as="offset" />
          </mxGeometry>
        </mxCell>
        <mxCell id="mNMveq-Edpe2rqSUxSKZ-16" value="&lt;div&gt;oae:belongsTo&lt;/div&gt;&lt;div&gt;0..1&lt;br&gt;&lt;/div&gt;" style="edgeLabel;html=1;align=center;verticalAlign=middle;resizable=0;points=[];" vertex="1" connectable="0" parent="rYzeqXxMH45nVFzDTZcA-47">
          <mxGeometry x="-0.8689" y="3" relative="1" as="geometry">
            <mxPoint x="28" y="-16" as="offset" />
          </mxGeometry>
        </mxCell>
        <mxCell id="rYzeqXxMH45nVFzDTZcA-49" style="edgeStyle=orthogonalEdgeStyle;rounded=0;orthogonalLoop=1;jettySize=auto;html=1;endArrow=none;endFill=0;" parent="1" source="rYzeqXxMH45nVFzDTZcA-18" target="rYzeqXxMH45nVFzDTZcA-5" edge="1">
          <mxGeometry relative="1" as="geometry">
            <Array as="points">
              <mxPoint x="480" y="160" />
              <mxPoint x="710" y="160" />
            </Array>
          </mxGeometry>
        </mxCell>
        <mxCell id="mNMveq-Edpe2rqSUxSKZ-15" value="&lt;div&gt;dbpedia:owns&lt;/div&gt;&lt;div&gt;0..*&lt;br&gt;&lt;/div&gt;" style="edgeLabel;html=1;align=center;verticalAlign=middle;resizable=0;points=[];" vertex="1" connectable="0" parent="rYzeqXxMH45nVFzDTZcA-49">
          <mxGeometry x="-0.9475" relative="1" as="geometry">
            <mxPoint as="offset" />
          </mxGeometry>
        </mxCell>
        <mxCell id="mNMveq-Edpe2rqSUxSKZ-10" style="edgeStyle=orthogonalEdgeStyle;rounded=0;orthogonalLoop=1;jettySize=auto;html=1;endArrow=none;endFill=0;" edge="1" parent="1" source="rYzeqXxMH45nVFzDTZcA-18" target="rYzeqXxMH45nVFzDTZcA-5">
          <mxGeometry relative="1" as="geometry">
            <Array as="points">
              <mxPoint x="370" y="180" />
              <mxPoint x="650" y="180" />
              <mxPoint x="650" y="396" />
            </Array>
          </mxGeometry>
        </mxCell>
        <mxCell id="mNMveq-Edpe2rqSUxSKZ-14" value="&lt;font color=&quot;#E6D0DE&quot;&gt;shopsAt&lt;/font&gt;&lt;div&gt;&lt;font color=&quot;#E6D0DE&quot;&gt;0..*&lt;/font&gt;&lt;br&gt;&lt;/div&gt;" style="edgeLabel;html=1;align=center;verticalAlign=middle;resizable=0;points=[];" vertex="1" connectable="0" parent="mNMveq-Edpe2rqSUxSKZ-10">
          <mxGeometry x="-0.927" y="-1" relative="1" as="geometry">
            <mxPoint as="offset" />
          </mxGeometry>
        </mxCell>
        <mxCell id="mNMveq-Edpe2rqSUxSKZ-21" value="&lt;div&gt;&lt;font color=&quot;#E6D0DE&quot;&gt;customer&lt;/font&gt;&lt;/div&gt;&lt;div&gt;&lt;font color=&quot;#E6D0DE&quot;&gt;0..*&lt;br&gt;&lt;/font&gt;&lt;/div&gt;" style="edgeLabel;html=1;align=center;verticalAlign=middle;resizable=0;points=[];" vertex="1" connectable="0" parent="mNMveq-Edpe2rqSUxSKZ-10">
          <mxGeometry x="0.8038" y="-1" relative="1" as="geometry">
            <mxPoint as="offset" />
          </mxGeometry>
        </mxCell>
        <mxCell id="rYzeqXxMH45nVFzDTZcA-18" value="Eshop" style="swimlane;fontStyle=0;childLayout=stackLayout;horizontal=1;startSize=26;fillColor=none;horizontalStack=0;resizeParent=1;resizeParentMax=0;resizeLast=0;collapsible=1;marginBottom=0;" parent="1" vertex="1">
          <mxGeometry x="350" y="53" width="140" height="52" as="geometry" />
        </mxCell>
        <mxCell id="rYzeqXxMH45nVFzDTZcA-64" style="edgeStyle=orthogonalEdgeStyle;rounded=0;orthogonalLoop=1;jettySize=auto;html=1;fontColor=none;endArrow=none;endFill=0;" parent="1" source="rYzeqXxMH45nVFzDTZcA-22" target="rYzeqXxMH45nVFzDTZcA-34" edge="1">
          <mxGeometry relative="1" as="geometry">
            <Array as="points">
              <mxPoint x="100" y="170" />
              <mxPoint x="100" y="170" />
            </Array>
          </mxGeometry>
        </mxCell>
        <mxCell id="rYzeqXxMH45nVFzDTZcA-65" value="&lt;div&gt;pwo:produces&lt;/div&gt;&lt;div&gt;0..*&lt;br&gt;&lt;/div&gt;" style="edgeLabel;html=1;align=center;verticalAlign=middle;resizable=0;points=[];fontColor=none;" parent="rYzeqXxMH45nVFzDTZcA-64" vertex="1" connectable="0">
          <mxGeometry x="0.1967" relative="1" as="geometry">
            <mxPoint x="40" y="-36" as="offset" />
          </mxGeometry>
        </mxCell>
        <mxCell id="rYzeqXxMH45nVFzDTZcA-22" value="Paywall" style="swimlane;fontStyle=0;childLayout=stackLayout;horizontal=1;startSize=26;fillColor=none;horizontalStack=0;resizeParent=1;resizeParentMax=0;resizeLast=0;collapsible=1;marginBottom=0;" parent="1" vertex="1">
          <mxGeometry x="80" y="240" width="140" height="52" as="geometry" />
        </mxCell>
        <mxCell id="rYzeqXxMH45nVFzDTZcA-38" style="edgeStyle=orthogonalEdgeStyle;rounded=0;orthogonalLoop=1;jettySize=auto;html=1;endArrow=none;endFill=0;" parent="1" source="rYzeqXxMH45nVFzDTZcA-26" target="rYzeqXxMH45nVFzDTZcA-22" edge="1">
          <mxGeometry relative="1" as="geometry">
            <mxPoint x="148.46000000000004" y="317.40200000000004" as="targetPoint" />
          </mxGeometry>
        </mxCell>
        <mxCell id="rYzeqXxMH45nVFzDTZcA-40" value="&lt;div&gt;&lt;font color=&quot;#E6D0DE&quot;&gt;chargeMoney&lt;/font&gt;&lt;/div&gt;&lt;div&gt;&lt;font color=&quot;#E6D0DE&quot;&gt;1&lt;/font&gt;&lt;font color=&quot;#67AB9F&quot;&gt;..1&lt;/font&gt;&lt;/div&gt;" style="edgeLabel;html=1;align=center;verticalAlign=middle;resizable=0;points=[];fontColor=#080707;" parent="rYzeqXxMH45nVFzDTZcA-38" vertex="1" connectable="0">
          <mxGeometry x="-0.125" relative="1" as="geometry">
            <mxPoint x="50" y="68" as="offset" />
          </mxGeometry>
        </mxCell>
        <mxCell id="rYzeqXxMH45nVFzDTZcA-41" style="edgeStyle=orthogonalEdgeStyle;rounded=0;orthogonalLoop=1;jettySize=auto;html=1;endArrow=none;endFill=0;" parent="1" source="rYzeqXxMH45nVFzDTZcA-26" target="rYzeqXxMH45nVFzDTZcA-5" edge="1">
          <mxGeometry relative="1" as="geometry" />
        </mxCell>
        <mxCell id="rYzeqXxMH45nVFzDTZcA-42" value="0..* foaf:holdsAccount" style="edgeLabel;html=1;align=center;verticalAlign=middle;resizable=0;points=[];" parent="rYzeqXxMH45nVFzDTZcA-41" vertex="1" connectable="0">
          <mxGeometry x="-0.0434" y="-3" relative="1" as="geometry">
            <mxPoint x="-222" y="14" as="offset" />
          </mxGeometry>
        </mxCell>
        <mxCell id="rYzeqXxMH45nVFzDTZcA-26" value="Account (foaf:account)" style="swimlane;fontStyle=0;childLayout=stackLayout;horizontal=1;startSize=26;fillColor=none;horizontalStack=0;resizeParent=1;resizeParentMax=0;resizeLast=0;collapsible=1;marginBottom=0;" parent="1" vertex="1">
          <mxGeometry x="80" y="484" width="140" height="52" as="geometry" />
        </mxCell>
        <mxCell id="rYzeqXxMH45nVFzDTZcA-28" value="+ balance:number" style="text;strokeColor=none;fillColor=none;align=left;verticalAlign=top;spacingLeft=4;spacingRight=4;overflow=hidden;rotatable=0;points=[[0,0.5],[1,0.5]];portConstraint=eastwest;" parent="rYzeqXxMH45nVFzDTZcA-26" vertex="1">
          <mxGeometry y="26" width="140" height="26" as="geometry" />
        </mxCell>
        <mxCell id="olLpTlCN6azwz4S4PQLR-4" style="edgeStyle=orthogonalEdgeStyle;rounded=0;orthogonalLoop=1;jettySize=auto;html=1;endArrow=none;endFill=0;" parent="1" source="rYzeqXxMH45nVFzDTZcA-34" target="rYzeqXxMH45nVFzDTZcA-18" edge="1">
          <mxGeometry relative="1" as="geometry" />
        </mxCell>
        <mxCell id="mNMveq-Edpe2rqSUxSKZ-22" value="&lt;div&gt;rico:hasReceiver&lt;/div&gt;&lt;div&gt;1..1&lt;br&gt;&lt;/div&gt;" style="edgeLabel;html=1;align=center;verticalAlign=middle;resizable=0;points=[];" vertex="1" connectable="0" parent="olLpTlCN6azwz4S4PQLR-4">
          <mxGeometry x="0.6462" relative="1" as="geometry">
            <mxPoint x="-17" y="-13" as="offset" />
          </mxGeometry>
        </mxCell>
        <mxCell id="rYzeqXxMH45nVFzDTZcA-34" value="Receipt" style="swimlane;fontStyle=0;childLayout=stackLayout;horizontal=1;startSize=26;fillColor=none;horizontalStack=0;resizeParent=1;resizeParentMax=0;resizeLast=0;collapsible=1;marginBottom=0;" parent="1" vertex="1">
          <mxGeometry x="60" y="40" width="160" height="78" as="geometry" />
        </mxCell>
        <mxCell id="rYzeqXxMH45nVFzDTZcA-35" value="+ status: dbpedia-owl:status" style="text;strokeColor=none;fillColor=none;align=left;verticalAlign=top;spacingLeft=4;spacingRight=4;overflow=hidden;rotatable=0;points=[[0,0.5],[1,0.5]];portConstraint=eastwest;" parent="rYzeqXxMH45nVFzDTZcA-34" vertex="1">
          <mxGeometry y="26" width="160" height="26" as="geometry" />
        </mxCell>
        <mxCell id="rYzeqXxMH45nVFzDTZcA-36" value="+ text: schema:text" style="text;strokeColor=none;fillColor=none;align=left;verticalAlign=top;spacingLeft=4;spacingRight=4;overflow=hidden;rotatable=0;points=[[0,0.5],[1,0.5]];portConstraint=eastwest;" parent="rYzeqXxMH45nVFzDTZcA-34" vertex="1">
          <mxGeometry y="52" width="160" height="26" as="geometry" />
        </mxCell>
        <mxCell id="rYzeqXxMH45nVFzDTZcA-52" value="&lt;div&gt;osspr:contains&lt;/div&gt;&lt;div&gt;0..*&lt;br&gt;&lt;/div&gt;" style="text;html=1;align=center;verticalAlign=middle;resizable=0;points=[];autosize=1;strokeColor=none;fontColor=#080707;" parent="1" vertex="1">
          <mxGeometry x="420" y="340" width="90" height="30" as="geometry" />
        </mxCell>
        <mxCell id="olLpTlCN6azwz4S4PQLR-5" value="rico:isReceiverOf" style="text;html=1;align=center;verticalAlign=middle;resizable=0;points=[];autosize=1;strokeColor=none;" parent="1" vertex="1">
          <mxGeometry x="215" y="82" width="110" height="20" as="geometry" />
        </mxCell>
        <mxCell id="olLpTlCN6azwz4S4PQLR-6" value="0..*" style="text;html=1;align=center;verticalAlign=middle;resizable=0;points=[];autosize=1;strokeColor=none;" parent="1" vertex="1">
          <mxGeometry x="225" y="98" width="30" height="20" as="geometry" />
        </mxCell>
        <mxCell id="olLpTlCN6azwz4S4PQLR-7" value="&lt;div&gt;&lt;font color=&quot;#E6D0DE&quot;&gt;usedToPay&lt;/font&gt;&lt;/div&gt;&lt;div&gt;&lt;font color=&quot;#E6D0DE&quot;&gt;0..*&lt;br&gt;&lt;/font&gt;&lt;/div&gt;" style="text;html=1;align=center;verticalAlign=middle;resizable=0;points=[];autosize=1;strokeColor=none;" parent="1" vertex="1">
          <mxGeometry x="255" y="285" width="70" height="30" as="geometry" />
        </mxCell>
        <mxCell id="olLpTlCN6azwz4S4PQLR-8" value="&lt;div&gt;dbpedia:producedBy&lt;/div&gt;&lt;div&gt;1..1&lt;br&gt;&lt;/div&gt;" style="text;html=1;align=center;verticalAlign=middle;resizable=0;points=[];autosize=1;strokeColor=none;fontColor=#000000;" parent="1" vertex="1">
          <mxGeometry x="-20" y="210" width="130" height="30" as="geometry" />
        </mxCell>
        <mxCell id="aIXJ-rFbpL7HegaQb5e9-2" value="&lt;div&gt;frbr:owner&lt;/div&gt;&lt;div&gt;1..1&lt;/div&gt;" style="text;html=1;align=center;verticalAlign=middle;resizable=0;points=[];autosize=1;strokeColor=none;fontColor=#000000;" parent="1" vertex="1">
          <mxGeometry x="730" y="438" width="70" height="30" as="geometry" />
        </mxCell>
        <mxCell id="mNMveq-Edpe2rqSUxSKZ-2" value="&lt;div&gt;frbr:owner&lt;/div&gt;&lt;div&gt;1..1&lt;/div&gt;" style="edgeLabel;html=1;align=center;verticalAlign=middle;resizable=0;points=[];fontColor=#000000;" vertex="1" connectable="0" parent="1">
          <mxGeometry x="710" y="310" as="geometry" />
        </mxCell>
        <mxCell id="mNMveq-Edpe2rqSUxSKZ-11" value="saref:consistsOf&lt;br&gt;0..*" style="text;html=1;strokeColor=none;fillColor=none;align=center;verticalAlign=middle;whiteSpace=wrap;rounded=0;" vertex="1" parent="1">
          <mxGeometry x="445" y="300" width="40" height="20" as="geometry" />
        </mxCell>
        <mxCell id="mNMveq-Edpe2rqSUxSKZ-13" value="&lt;div&gt;nlon:create&lt;/div&gt;&lt;div&gt;0..*&lt;br&gt;&lt;/div&gt;" style="text;html=1;align=center;verticalAlign=middle;resizable=0;points=[];autosize=1;strokeColor=none;" vertex="1" parent="1">
          <mxGeometry x="510" y="262" width="70" height="30" as="geometry" />
        </mxCell>
        <mxCell id="mNMveq-Edpe2rqSUxSKZ-23" value="&lt;div&gt;usedToPayAt&lt;/div&gt;&lt;div&gt;0..*&lt;br&gt;&lt;/div&gt;" style="text;html=1;align=center;verticalAlign=middle;resizable=0;points=[];autosize=1;strokeColor=none;" vertex="1" parent="1">
          <mxGeometry x="150" y="300" width="90" height="30" as="geometry" />
        </mxCell>
        <mxCell id="mNMveq-Edpe2rqSUxSKZ-24" value="oae:belongsTo&lt;div&gt;0..*&lt;br&gt;&lt;/div&gt;" style="text;html=1;align=center;verticalAlign=middle;resizable=0;points=[];autosize=1;strokeColor=none;" vertex="1" parent="1">
          <mxGeometry x="750" y="340" width="90" height="30" as="geometry" />
        </mxCell>
      </root>
    </mxGraphModel>
  </diagram>
</mxfile>
